<svg width="135" height="43" viewBox="0 0 135 43" fill="none" xmlns="http://www.w3.org/2000/svg">
<rect width="135" height="43" rx="8" fill="#2B2B2B"/>
<g clip-path="url(#clip0_407_19277)">
<path fill-rule="evenodd" clip-rule="evenodd" d="M14.734 9C9.80341 9 8 10.8031 8 15.7327V26.2673C8 31.1969 9.80341 33 14.734 33H25.2628C30.1932 33 32 31.1969 32 26.2673V15.7327C32 10.8031 30.1966 9 25.266 9H14.734Z" fill="url(#paint0_linear_407_19277)"/>
<path fill-rule="evenodd" clip-rule="evenodd" d="M18.4687 22.9195H19.4322L18.9488 21.7953L18.4687 22.9195ZM18.2314 23.486L17.9456 24.1401H17.2947L18.6788 21.0002H19.2412L20.6197 24.1401H19.9515L19.6693 23.486H18.2314ZM28.7043 24.1378H29.3333V21H28.7043V24.1378ZM26.2007 22.7899H27.3602V22.2177H26.2007V21.5746H27.8839V21.0023H25.5719V24.1399H27.9445V23.5676H26.2007V22.7899ZM23.7014 23.1606L22.9882 21H22.4678L21.7547 23.1606L21.0606 21.0017H20.382L21.4773 24.1419H22.0049L22.7191 22.0792L23.4334 24.1419H23.9656L25.058 21.0017H24.397L23.7014 23.1606ZM16.3345 22.7986C16.3345 23.3093 16.0809 23.5823 15.6202 23.5823C15.1571 23.5823 14.9021 23.3014 14.9021 22.7768V21.0021H14.2645V22.7986C14.2645 23.6822 14.7557 24.1889 15.6115 24.1889C16.4759 24.1889 16.9714 23.6726 16.9714 22.7723V21.0002H16.3345V22.7986ZM12.7436 21.0002H13.3807V24.1421H12.7436V22.8661H11.3042V24.1421H10.6667V21.0002H11.3042V22.2675H12.7436V21.0002Z" fill="white"/>
<path fill-rule="evenodd" clip-rule="evenodd" d="M20 17C17.7942 17 16 15.2056 16 13H16.565C16.565 14.8939 18.1061 16.4348 20 16.4348C21.8939 16.4348 23.435 14.8939 23.435 13H24C24 15.2056 22.2056 17 20 17Z" fill="white"/>
</g>
<path d="M43.537 12.733C44.113 12.859 44.824 13.327 44.824 14.263C44.824 15.361 43.852 16.081 42.52 16.081C41.521 16.081 40.684 15.73 40.36 15.388L40.738 14.74C41.215 15.118 41.836 15.325 42.439 15.325C43.285 15.325 44.005 14.983 44.005 14.227C44.005 13.48 43.33 13.165 42.367 13.165H41.53V12.436H42.268C43.195 12.436 43.789 12.058 43.789 11.374C43.789 10.69 43.195 10.429 42.475 10.429C41.773 10.429 41.179 10.708 40.747 11.014L40.369 10.375C40.792 10.015 41.602 9.673 42.484 9.673C43.726 9.673 44.608 10.249 44.608 11.32C44.608 12.148 44.05 12.58 43.537 12.733ZM47.5963 11.293C48.8923 11.293 49.6123 12.013 49.6123 13.147V16H48.8383V14.992C48.8383 15.478 48.2353 16.081 47.2993 16.081C46.4263 16.081 45.5983 15.577 45.5983 14.614C45.5983 13.624 46.5523 13.183 47.4793 13.183C48.0283 13.183 48.4603 13.264 48.8383 13.444V13.165C48.8383 12.409 48.1813 12.04 47.5693 12.04C47.0023 12.04 46.5253 12.22 46.1653 12.481L45.7963 11.833C46.2463 11.491 46.9123 11.293 47.5963 11.293ZM47.4253 15.352C48.0823 15.352 48.8383 14.902 48.8383 14.308V14.155C48.4333 13.957 48.0193 13.876 47.4883 13.876C46.9393 13.876 46.3993 14.128 46.3993 14.614C46.3993 15.091 46.8493 15.352 47.4253 15.352ZM50.9676 11.374H54.1986V12.121H51.7506V16H50.9676V11.374ZM57.5274 11.284C58.5444 11.284 59.5614 12.157 59.5614 13.678C59.5614 15.199 58.5444 16.081 57.5274 16.081C56.5554 16.081 56.0424 15.46 55.9254 15.046V17.944H55.1424V11.374H55.9254V12.319C56.0424 11.905 56.5554 11.284 57.5274 11.284ZM57.3114 15.334C58.0584 15.334 58.7514 14.767 58.7514 13.678C58.7514 12.589 58.0584 12.031 57.3114 12.031C56.5734 12.031 55.9254 12.634 55.9254 13.417V13.948C55.9254 14.731 56.5734 15.334 57.3114 15.334ZM62.319 14.893L63.696 11.374H64.578L61.914 17.944H61.059L61.887 15.91L60.051 11.374H60.924L62.319 14.893ZM67.8636 13.552C68.3136 13.66 68.8086 14.011 68.8086 14.668C68.8086 15.667 67.8636 16.081 66.9726 16.081C66.1536 16.081 65.3796 15.784 65.0556 15.487L65.4516 14.875C65.7936 15.127 66.3606 15.352 66.9366 15.352C67.5036 15.352 68.0076 15.136 68.0076 14.659C68.0076 14.182 67.5216 13.984 66.9096 13.984H66.0996V13.273H66.9096C67.4406 13.273 67.8186 13.057 67.8186 12.634C67.8186 12.229 67.4586 12.013 66.9096 12.013C66.3336 12.013 65.7846 12.265 65.4606 12.508L65.0916 11.896C65.4606 11.563 66.1626 11.293 66.9456 11.293C67.9266 11.293 68.6196 11.761 68.6196 12.562C68.6196 13.12 68.2596 13.444 67.8636 13.552ZM70.7174 11.374V14.749L73.2104 11.374H73.9394V16H73.1564V12.607L70.6634 16H69.9344V11.374H70.7174ZM74.8807 11.374H78.9217V12.121H77.2927V16H76.5097V12.121H74.8807V11.374ZM83.6683 13.498V13.912H80.2483C80.3023 14.785 80.9773 15.343 81.8413 15.343C82.4443 15.343 82.8313 15.064 83.0833 14.776L83.6143 15.262C83.2093 15.802 82.6153 16.081 81.8413 16.081C80.5363 16.081 79.4293 15.235 79.4293 13.642C79.4293 12.211 80.3653 11.293 81.6073 11.293C82.8583 11.293 83.6683 12.184 83.6683 13.498ZM81.5893 12.022C80.7343 12.022 80.3113 12.688 80.2663 13.228H82.8583C82.8133 12.508 82.3183 12.022 81.5893 12.022ZM89.0824 16H86.9764V11.374H88.9294C89.9014 11.374 90.4414 11.851 90.4414 12.58C90.4414 13.111 90.1354 13.426 89.7934 13.552C90.1624 13.651 90.6394 13.993 90.6394 14.65C90.6394 15.451 90.1174 16 89.0824 16ZM87.7594 12.103V13.3H88.8754C89.3704 13.3 89.6404 13.066 89.6404 12.706C89.6404 12.337 89.3704 12.103 88.8754 12.103H87.7594ZM87.7594 13.993V15.271H89.0284C89.5504 15.271 89.8384 15.046 89.8384 14.632C89.8384 14.218 89.5504 13.993 89.0284 13.993H87.7594Z" fill="white"/>
<path d="M49.604 32H47.392L46.734 30.152H42.996L42.338 32H40.14L43.808 22.284H45.936L49.604 32ZM44.872 24.916L43.682 28.234H46.048L44.872 24.916ZM54.928 24.524C56.51 24.524 58.064 25.882 58.064 28.332C58.064 30.782 56.51 32.14 54.928 32.14C53.57 32.14 52.814 31.314 52.632 30.698V35.024H50.616V24.678H52.632V25.966C52.814 25.364 53.57 24.524 54.928 24.524ZM54.27 30.222C55.166 30.222 55.95 29.508 55.95 28.332C55.95 27.156 55.166 26.442 54.27 26.442C53.43 26.442 52.632 27.114 52.632 28.094V28.57C52.632 29.564 53.43 30.222 54.27 30.222ZM63.7464 24.524C65.3284 24.524 66.8824 25.882 66.8824 28.332C66.8824 30.782 65.3284 32.14 63.7464 32.14C62.3884 32.14 61.6324 31.314 61.4504 30.698V35.024H59.4344V24.678H61.4504V25.966C61.6324 25.364 62.3884 24.524 63.7464 24.524ZM63.0884 30.222C63.9844 30.222 64.7684 29.508 64.7684 28.332C64.7684 27.156 63.9844 26.442 63.0884 26.442C62.2484 26.442 61.4504 27.114 61.4504 28.094V28.57C61.4504 29.564 62.2484 30.222 63.0884 30.222ZM74.4268 28.192H72.3268V26.386H76.4428V31.272C75.7708 31.79 74.6648 32.14 73.4328 32.14C70.5488 32.14 67.9588 30.404 67.9588 27.142C67.9588 24.076 70.5068 22.144 73.2788 22.144C74.6788 22.144 75.8688 22.634 76.4428 23.166L75.4068 24.86C74.8608 24.44 74.1468 24.132 73.2228 24.132C71.6688 24.132 70.1008 25.224 70.1008 27.212C70.1008 29.2 71.6828 30.208 73.3488 30.208C73.7268 30.208 74.1048 30.152 74.4268 30.04V28.192ZM81.1332 24.524C83.5412 24.524 84.4932 25.84 84.4932 27.576V32H82.5052V30.6C82.4492 31.426 81.5252 32.14 80.2932 32.14C78.9212 32.14 77.6892 31.314 77.6892 29.83C77.6892 28.304 79.0332 27.52 80.7552 27.52C81.4552 27.52 82.0152 27.618 82.5052 27.814V27.576C82.5052 26.82 81.8332 26.372 80.9092 26.372C80.0552 26.372 79.3272 26.666 78.7392 27.03L78.0252 25.336C78.7532 24.874 79.9292 24.524 81.1332 24.524ZM80.8672 30.474C81.6652 30.474 82.5052 29.998 82.5052 29.354V29.298C82.0152 29.088 81.5252 28.99 80.9372 28.99C80.2652 28.99 79.7052 29.242 79.7052 29.732C79.7052 30.236 80.2092 30.474 80.8672 30.474ZM86.1629 21.514H88.1789V32H86.1629V21.514ZM89.909 21.514H91.925V32H89.909V21.514ZM100.403 28.122V28.976H95.3631C95.5311 29.83 96.3571 30.376 97.4631 30.376C98.2051 30.376 98.7651 30.124 99.2691 29.746L100.221 31.174C99.6191 31.776 98.5831 32.14 97.4771 32.14C95.0411 32.14 93.2911 30.6 93.2911 28.29C93.2911 26.148 94.8171 24.524 96.9311 24.524C99.0451 24.524 100.403 26.022 100.403 28.122ZM96.9031 26.204C96.0211 26.204 95.4471 26.806 95.3631 27.506H98.4011C98.3171 26.736 97.7151 26.204 96.9031 26.204ZM106.326 24.65L106.634 26.54C105.206 26.358 103.792 27.016 103.792 28.416V32H101.776V24.678H103.624V26.316C103.918 25.392 104.744 24.44 106.326 24.65ZM110.776 29.228L112.484 24.678H114.668L110.608 35.024H108.438L109.698 31.86L106.87 24.678H109.068L110.776 29.228Z" fill="white"/>
<defs>
<linearGradient id="paint0_linear_407_19277" x1="20" y1="9" x2="20" y2="33" gradientUnits="userSpaceOnUse">
<stop stop-color="#FB6361"/>
<stop offset="1" stop-color="#ED3E45"/>
</linearGradient>
<clipPath id="clip0_407_19277">
<rect width="24" height="24" fill="white" transform="translate(8 9)"/>
</clipPath>
</defs>
</svg>
