<svg width="135" height="43" viewBox="0 0 135 43" fill="none" xmlns="http://www.w3.org/2000/svg">
<rect width="135" height="43" rx="8" fill="#2B2B2B"/>
<path d="M43.537 12.733C44.113 12.859 44.824 13.327 44.824 14.263C44.824 15.361 43.852 16.081 42.52 16.081C41.521 16.081 40.684 15.73 40.36 15.388L40.738 14.74C41.215 15.118 41.836 15.325 42.439 15.325C43.285 15.325 44.005 14.983 44.005 14.227C44.005 13.48 43.33 13.165 42.367 13.165H41.53V12.436H42.268C43.195 12.436 43.789 12.058 43.789 11.374C43.789 10.69 43.195 10.429 42.475 10.429C41.773 10.429 41.179 10.708 40.747 11.014L40.369 10.375C40.792 10.015 41.602 9.673 42.484 9.673C43.726 9.673 44.608 10.249 44.608 11.32C44.608 12.148 44.05 12.58 43.537 12.733ZM47.5963 11.293C48.8923 11.293 49.6123 12.013 49.6123 13.147V16H48.8383V14.992C48.8383 15.478 48.2353 16.081 47.2993 16.081C46.4263 16.081 45.5983 15.577 45.5983 14.614C45.5983 13.624 46.5523 13.183 47.4793 13.183C48.0283 13.183 48.4603 13.264 48.8383 13.444V13.165C48.8383 12.409 48.1813 12.04 47.5693 12.04C47.0023 12.04 46.5253 12.22 46.1653 12.481L45.7963 11.833C46.2463 11.491 46.9123 11.293 47.5963 11.293ZM47.4253 15.352C48.0823 15.352 48.8383 14.902 48.8383 14.308V14.155C48.4333 13.957 48.0193 13.876 47.4883 13.876C46.9393 13.876 46.3993 14.128 46.3993 14.614C46.3993 15.091 46.8493 15.352 47.4253 15.352ZM50.9676 11.374H54.1986V12.121H51.7506V16H50.9676V11.374ZM57.5274 11.284C58.5444 11.284 59.5614 12.157 59.5614 13.678C59.5614 15.199 58.5444 16.081 57.5274 16.081C56.5554 16.081 56.0424 15.46 55.9254 15.046V17.944H55.1424V11.374H55.9254V12.319C56.0424 11.905 56.5554 11.284 57.5274 11.284ZM57.3114 15.334C58.0584 15.334 58.7514 14.767 58.7514 13.678C58.7514 12.589 58.0584 12.031 57.3114 12.031C56.5734 12.031 55.9254 12.634 55.9254 13.417V13.948C55.9254 14.731 56.5734 15.334 57.3114 15.334ZM62.319 14.893L63.696 11.374H64.578L61.914 17.944H61.059L61.887 15.91L60.051 11.374H60.924L62.319 14.893ZM67.8636 13.552C68.3136 13.66 68.8086 14.011 68.8086 14.668C68.8086 15.667 67.8636 16.081 66.9726 16.081C66.1536 16.081 65.3796 15.784 65.0556 15.487L65.4516 14.875C65.7936 15.127 66.3606 15.352 66.9366 15.352C67.5036 15.352 68.0076 15.136 68.0076 14.659C68.0076 14.182 67.5216 13.984 66.9096 13.984H66.0996V13.273H66.9096C67.4406 13.273 67.8186 13.057 67.8186 12.634C67.8186 12.229 67.4586 12.013 66.9096 12.013C66.3336 12.013 65.7846 12.265 65.4606 12.508L65.0916 11.896C65.4606 11.563 66.1626 11.293 66.9456 11.293C67.9266 11.293 68.6196 11.761 68.6196 12.562C68.6196 13.12 68.2596 13.444 67.8636 13.552ZM70.7174 11.374V14.749L73.2104 11.374H73.9394V16H73.1564V12.607L70.6634 16H69.9344V11.374H70.7174ZM74.8807 11.374H78.9217V12.121H77.2927V16H76.5097V12.121H74.8807V11.374ZM83.6683 13.498V13.912H80.2483C80.3023 14.785 80.9773 15.343 81.8413 15.343C82.4443 15.343 82.8313 15.064 83.0833 14.776L83.6143 15.262C83.2093 15.802 82.6153 16.081 81.8413 16.081C80.5363 16.081 79.4293 15.235 79.4293 13.642C79.4293 12.211 80.3653 11.293 81.6073 11.293C82.8583 11.293 83.6683 12.184 83.6683 13.498ZM81.5893 12.022C80.7343 12.022 80.3113 12.688 80.2663 13.228H82.8583C82.8133 12.508 82.3183 12.022 81.5893 12.022ZM89.0824 16H86.9764V11.374H88.9294C89.9014 11.374 90.4414 11.851 90.4414 12.58C90.4414 13.111 90.1354 13.426 89.7934 13.552C90.1624 13.651 90.6394 13.993 90.6394 14.65C90.6394 15.451 90.1174 16 89.0824 16ZM87.7594 12.103V13.3H88.8754C89.3704 13.3 89.6404 13.066 89.6404 12.706C89.6404 12.337 89.3704 12.103 88.8754 12.103H87.7594ZM87.7594 13.993V15.271H89.0284C89.5504 15.271 89.8384 15.046 89.8384 14.632C89.8384 14.218 89.5504 13.993 89.0284 13.993H87.7594Z" fill="white"/>
<path d="M47.042 28.192H44.942V26.386H49.058V31.272C48.386 31.79 47.28 32.14 46.048 32.14C43.164 32.14 40.574 30.404 40.574 27.142C40.574 24.076 43.122 22.144 45.894 22.144C47.294 22.144 48.484 22.634 49.058 23.166L48.022 24.86C47.476 24.44 46.762 24.132 45.838 24.132C44.284 24.132 42.716 25.224 42.716 27.212C42.716 29.2 44.298 30.208 45.964 30.208C46.342 30.208 46.72 30.152 47.042 30.04V28.192ZM58.0464 28.332C58.0464 30.488 56.3944 32.14 54.2244 32.14C52.0544 32.14 50.4024 30.488 50.4024 28.332C50.4024 26.176 52.0544 24.524 54.2244 24.524C56.3944 24.524 58.0464 26.176 58.0464 28.332ZM52.4604 28.332C52.4604 29.396 53.2164 30.194 54.2244 30.194C55.2324 30.194 55.9884 29.396 55.9884 28.332C55.9884 27.282 55.2324 26.484 54.2244 26.484C53.2164 26.484 52.4604 27.282 52.4604 28.332ZM66.7007 28.332C66.7007 30.488 65.0487 32.14 62.8787 32.14C60.7087 32.14 59.0567 30.488 59.0567 28.332C59.0567 26.176 60.7087 24.524 62.8787 24.524C65.0487 24.524 66.7007 26.176 66.7007 28.332ZM61.1147 28.332C61.1147 29.396 61.8707 30.194 62.8787 30.194C63.8867 30.194 64.6427 29.396 64.6427 28.332C64.6427 27.282 63.8867 26.484 62.8787 26.484C61.8707 26.484 61.1147 27.282 61.1147 28.332ZM73.143 25.994V24.678H75.159V31.132C75.159 33.974 73.451 35.164 71.169 35.164C69.951 35.164 68.817 34.786 68.131 34.296L68.873 32.616C69.475 33.008 70.245 33.302 70.959 33.302C72.079 33.302 73.143 32.728 73.143 31.062V30.572C72.989 31.174 72.219 32.042 70.847 32.042C69.265 32.042 67.711 30.698 67.711 28.29C67.711 25.868 69.265 24.524 70.847 24.524C72.219 24.524 72.989 25.392 73.143 25.994ZM71.505 30.152C72.331 30.152 73.143 29.494 73.143 28.528V28.052C73.143 27.072 72.331 26.414 71.505 26.414C70.609 26.414 69.825 27.128 69.825 28.29C69.825 29.452 70.609 30.152 71.505 30.152ZM76.8934 21.514H78.9094V32H76.8934V21.514ZM87.3875 28.122V28.976H82.3475C82.5155 29.83 83.3415 30.376 84.4475 30.376C85.1895 30.376 85.7495 30.124 86.2535 29.746L87.2055 31.174C86.6035 31.776 85.5675 32.14 84.4615 32.14C82.0255 32.14 80.2755 30.6 80.2755 28.29C80.2755 26.148 81.8015 24.524 83.9155 24.524C86.0295 24.524 87.3875 26.022 87.3875 28.122ZM83.8875 26.204C83.0055 26.204 82.4315 26.806 82.3475 27.506H85.3855C85.3015 26.736 84.6995 26.204 83.8875 26.204ZM88.9146 22.284H92.6806C94.6966 22.284 96.1526 23.418 96.1526 25.476C96.1526 27.52 94.6826 28.64 92.6806 28.64H90.9866V32H88.9146V22.284ZM90.9866 26.736H92.5966C93.4926 26.736 94.0246 26.232 94.0246 25.476C94.0246 24.734 93.4926 24.258 92.5966 24.258H90.9866V26.736ZM97.4696 21.514H99.4856V32H97.4696V21.514ZM104.198 24.524C106.606 24.524 107.558 25.84 107.558 27.576V32H105.57V30.6C105.514 31.426 104.59 32.14 103.358 32.14C101.986 32.14 100.754 31.314 100.754 29.83C100.754 28.304 102.098 27.52 103.82 27.52C104.52 27.52 105.08 27.618 105.57 27.814V27.576C105.57 26.82 104.898 26.372 103.974 26.372C103.12 26.372 102.392 26.666 101.804 27.03L101.09 25.336C101.818 24.874 102.994 24.524 104.198 24.524ZM103.932 30.474C104.73 30.474 105.57 29.998 105.57 29.354V29.298C105.08 29.088 104.59 28.99 104.002 28.99C103.33 28.99 102.77 29.242 102.77 29.732C102.77 30.236 103.274 30.474 103.932 30.474ZM112.144 29.228L113.852 24.678H116.036L111.976 35.024H109.806L111.066 31.86L108.238 24.678H110.436L112.144 29.228Z" fill="white"/>
<g clip-path="url(#clip0_407_19267)">
<path d="M19.28 20.46L9.21503 31.005C9.32805 31.4056 9.53115 31.775 9.80882 32.085C10.0865 32.3951 10.4314 32.6375 10.8171 32.7938C11.2028 32.9501 11.6192 33.0162 12.0344 32.9869C12.4496 32.9577 12.8525 32.8339 13.2125 32.625L24.5375 26.175L19.28 20.46Z" fill="#EA4335"/>
<path d="M29.4579 18.6674L24.5604 15.8624L19.0479 20.6999L24.5829 26.1599L29.4429 23.3849C29.8734 23.1595 30.2341 22.8205 30.4857 22.4047C30.7374 21.9889 30.8704 21.5122 30.8704 21.0262C30.8704 20.5402 30.7374 20.0634 30.4857 19.6476C30.2341 19.2319 29.8734 18.8929 29.4429 18.6674H29.4579Z" fill="#FBBC04"/>
<path d="M9.21503 10.995C9.15419 11.2199 9.12392 11.452 9.12503 11.685V30.315C9.12564 30.5479 9.15588 30.7798 9.21503 31.005L19.625 20.73L9.21503 10.995Z" fill="#4285F4"/>
<path d="M19.355 21L24.5604 15.8624L13.25 9.38251C12.8245 9.13331 12.3406 9.00133 11.8475 9.00001C11.252 8.99883 10.6724 9.1924 10.1972 9.55123C9.7219 9.91005 9.377 10.4144 9.21503 10.9875L19.355 21Z" fill="#34A853"/>
</g>
<defs>
<clipPath id="clip0_407_19267">
<rect width="24" height="24" fill="white" transform="translate(8 9)"/>
</clipPath>
</defs>
</svg>
