<svg width="135" height="43" viewBox="0 0 135 43" fill="none" xmlns="http://www.w3.org/2000/svg">
<rect width="135" height="43" rx="8" fill="#2B2B2B"/>
<path d="M43.537 12.733C44.113 12.859 44.824 13.327 44.824 14.263C44.824 15.361 43.852 16.081 42.52 16.081C41.521 16.081 40.684 15.73 40.36 15.388L40.738 14.74C41.215 15.118 41.836 15.325 42.439 15.325C43.285 15.325 44.005 14.983 44.005 14.227C44.005 13.48 43.33 13.165 42.367 13.165H41.53V12.436H42.268C43.195 12.436 43.789 12.058 43.789 11.374C43.789 10.69 43.195 10.429 42.475 10.429C41.773 10.429 41.179 10.708 40.747 11.014L40.369 10.375C40.792 10.015 41.602 9.673 42.484 9.673C43.726 9.673 44.608 10.249 44.608 11.32C44.608 12.148 44.05 12.58 43.537 12.733ZM47.5963 11.293C48.8923 11.293 49.6123 12.013 49.6123 13.147V16H48.8383V14.992C48.8383 15.478 48.2353 16.081 47.2993 16.081C46.4263 16.081 45.5983 15.577 45.5983 14.614C45.5983 13.624 46.5523 13.183 47.4793 13.183C48.0283 13.183 48.4603 13.264 48.8383 13.444V13.165C48.8383 12.409 48.1813 12.04 47.5693 12.04C47.0023 12.04 46.5253 12.22 46.1653 12.481L45.7963 11.833C46.2463 11.491 46.9123 11.293 47.5963 11.293ZM47.4253 15.352C48.0823 15.352 48.8383 14.902 48.8383 14.308V14.155C48.4333 13.957 48.0193 13.876 47.4883 13.876C46.9393 13.876 46.3993 14.128 46.3993 14.614C46.3993 15.091 46.8493 15.352 47.4253 15.352ZM50.9676 11.374H54.1986V12.121H51.7506V16H50.9676V11.374ZM57.5274 11.284C58.5444 11.284 59.5614 12.157 59.5614 13.678C59.5614 15.199 58.5444 16.081 57.5274 16.081C56.5554 16.081 56.0424 15.46 55.9254 15.046V17.944H55.1424V11.374H55.9254V12.319C56.0424 11.905 56.5554 11.284 57.5274 11.284ZM57.3114 15.334C58.0584 15.334 58.7514 14.767 58.7514 13.678C58.7514 12.589 58.0584 12.031 57.3114 12.031C56.5734 12.031 55.9254 12.634 55.9254 13.417V13.948C55.9254 14.731 56.5734 15.334 57.3114 15.334ZM62.319 14.893L63.696 11.374H64.578L61.914 17.944H61.059L61.887 15.91L60.051 11.374H60.924L62.319 14.893ZM67.8636 13.552C68.3136 13.66 68.8086 14.011 68.8086 14.668C68.8086 15.667 67.8636 16.081 66.9726 16.081C66.1536 16.081 65.3796 15.784 65.0556 15.487L65.4516 14.875C65.7936 15.127 66.3606 15.352 66.9366 15.352C67.5036 15.352 68.0076 15.136 68.0076 14.659C68.0076 14.182 67.5216 13.984 66.9096 13.984H66.0996V13.273H66.9096C67.4406 13.273 67.8186 13.057 67.8186 12.634C67.8186 12.229 67.4586 12.013 66.9096 12.013C66.3336 12.013 65.7846 12.265 65.4606 12.508L65.0916 11.896C65.4606 11.563 66.1626 11.293 66.9456 11.293C67.9266 11.293 68.6196 11.761 68.6196 12.562C68.6196 13.12 68.2596 13.444 67.8636 13.552ZM70.7174 11.374V14.749L73.2104 11.374H73.9394V16H73.1564V12.607L70.6634 16H69.9344V11.374H70.7174ZM74.8807 11.374H78.9217V12.121H77.2927V16H76.5097V12.121H74.8807V11.374ZM83.6683 13.498V13.912H80.2483C80.3023 14.785 80.9773 15.343 81.8413 15.343C82.4443 15.343 82.8313 15.064 83.0833 14.776L83.6143 15.262C83.2093 15.802 82.6153 16.081 81.8413 16.081C80.5363 16.081 79.4293 15.235 79.4293 13.642C79.4293 12.211 80.3653 11.293 81.6073 11.293C82.8583 11.293 83.6683 12.184 83.6683 13.498ZM81.5893 12.022C80.7343 12.022 80.3113 12.688 80.2663 13.228H82.8583C82.8133 12.508 82.3183 12.022 81.5893 12.022ZM89.0824 16H86.9764V11.374H88.9294C89.9014 11.374 90.4414 11.851 90.4414 12.58C90.4414 13.111 90.1354 13.426 89.7934 13.552C90.1624 13.651 90.6394 13.993 90.6394 14.65C90.6394 15.451 90.1174 16 89.0824 16ZM87.7594 12.103V13.3H88.8754C89.3704 13.3 89.6404 13.066 89.6404 12.706C89.6404 12.337 89.3704 12.103 88.8754 12.103H87.7594ZM87.7594 13.993V15.271H89.0284C89.5504 15.271 89.8384 15.046 89.8384 14.632C89.8384 14.218 89.5504 13.993 89.0284 13.993H87.7594Z" fill="white"/>
<path d="M48.932 32H46.552L44.522 28.64H43.094V32H41.022V22.284H44.788C46.804 22.284 48.26 23.418 48.26 25.476C48.26 26.792 47.602 27.716 46.608 28.22L48.932 32ZM44.718 24.258H43.094V26.736H44.718C45.614 26.736 46.132 26.232 46.132 25.476C46.132 24.734 45.614 24.258 44.718 24.258ZM54.7758 28.542V24.678H56.7918V32H54.7758V30.516C54.6918 31.314 53.8798 32.154 52.5358 32.154C51.1358 32.154 49.9038 31.132 49.9038 29.116V24.678H51.9198V28.57C51.9198 29.704 52.5778 30.166 53.2918 30.166C54.0618 30.166 54.7758 29.592 54.7758 28.542ZM65.3641 23.25L64.4121 25C63.8241 24.482 62.9001 24.09 61.9481 24.09C61.0101 24.09 60.3941 24.454 60.3941 25.042C60.3941 25.686 61.0661 25.854 61.8081 26.022L62.6901 26.204C64.3001 26.526 65.6021 27.338 65.6021 29.088C65.6021 30.978 64.0341 32.14 61.9621 32.14C60.2401 32.14 58.7001 31.496 58.1401 31.048L59.0501 29.256C59.8621 29.788 60.8141 30.194 61.9621 30.194C62.7881 30.194 63.4461 29.886 63.4461 29.242C63.4461 28.612 62.8301 28.388 62.0181 28.22L61.0661 28.024C59.6661 27.73 58.2381 26.974 58.2381 25.238C58.2381 23.39 59.9041 22.144 62.0041 22.144C63.5441 22.144 64.6921 22.69 65.3641 23.25ZM70.8206 30.04L71.3106 31.79C71.0306 31.972 70.4846 32.14 69.8826 32.14C68.1746 32.14 67.2786 31.202 67.2786 29.564V26.498H66.0886V24.678H67.2786V22.886H69.3086V24.678H71.0026V26.498H69.3086V29.256C69.3086 29.816 69.5466 30.194 70.1486 30.194C70.4146 30.194 70.6246 30.138 70.8206 30.04ZM79.4566 28.332C79.4566 30.488 77.8046 32.14 75.6346 32.14C73.4646 32.14 71.8126 30.488 71.8126 28.332C71.8126 26.176 73.4646 24.524 75.6346 24.524C77.8046 24.524 79.4566 26.176 79.4566 28.332ZM73.8706 28.332C73.8706 29.396 74.6266 30.194 75.6346 30.194C76.6426 30.194 77.3986 29.396 77.3986 28.332C77.3986 27.282 76.6426 26.484 75.6346 26.484C74.6266 26.484 73.8706 27.282 73.8706 28.332ZM85.3809 24.65L85.6889 26.54C84.2609 26.358 82.8469 27.016 82.8469 28.416V32H80.8309V24.678H82.6789V26.316C82.9729 25.392 83.7989 24.44 85.3809 24.65ZM93.2664 28.122V28.976H88.2264C88.3944 29.83 89.2204 30.376 90.3264 30.376C91.0684 30.376 91.6284 30.124 92.1324 29.746L93.0844 31.174C92.4824 31.776 91.4464 32.14 90.3404 32.14C87.9044 32.14 86.1544 30.6 86.1544 28.29C86.1544 26.148 87.6804 24.524 89.7944 24.524C91.9084 24.524 93.2664 26.022 93.2664 28.122ZM89.7664 26.204C88.8844 26.204 88.3104 26.806 88.2264 27.506H91.2644C91.1804 26.736 90.5784 26.204 89.7664 26.204Z" fill="white"/>
<g clip-path="url(#clip0_407_19282)">
<path fill-rule="evenodd" clip-rule="evenodd" d="M19.52 33C14.0894 33 11.3741 33 9.68707 31.3129C8 29.6259 8 26.9105 8 21.4799L8 20.5199C8 15.0893 8 12.374 9.68706 10.687C11.3741 9 14.0894 9 19.52 9L20.48 9C25.9106 9 28.6259 9 30.3129 10.687C32 12.374 32 15.0893 32 20.5199V21.4799C32 26.9105 32 29.6259 30.3129 31.3129C28.6259 33 25.9106 33 20.48 33H19.52Z" fill="#0077FF"/>
<path d="M21.8783 23.7903C21.2317 23.6287 20.7783 23.0503 20.7783 22.3869V14.5711C20.7783 13.8176 21.4904 13.265 22.2248 13.4484L26.8759 14.6103C27.5225 14.7718 27.9759 15.3502 27.9759 16.0137V23.8294C27.9759 24.583 27.2639 25.1356 26.5295 24.9521L21.8783 23.7903Z" fill="white"/>
<path d="M13.1244 27.3892C12.4778 27.2276 12.0244 26.6492 12.0244 25.9858V18.17C12.0244 17.4165 12.7364 16.8638 13.4709 17.0473L18.122 18.2092C18.7686 18.3707 19.222 18.9491 19.222 19.6125V27.4283C19.222 28.1818 18.51 28.7345 17.7755 28.551L13.1244 27.3892Z" fill="white"/>
<path d="M17.5014 25.5898C16.8547 25.4282 16.4014 24.8498 16.4014 24.1864V16.3706C16.4014 15.6171 17.1134 15.0645 17.8479 15.2479L22.4989 16.4098C23.1456 16.5713 23.599 17.1498 23.599 17.8132V25.6289C23.599 26.3825 22.887 26.9351 22.1525 26.7517L17.5014 25.5898Z" fill="white"/>
<path d="M20.5454 26.3523C20.3417 26.3004 20.1968 26.1203 20.1897 25.9102L19.9873 19.9413C19.9288 19.1514 19.3424 18.5231 18.7296 18.3381C18.6952 18.3277 18.6584 18.3417 18.6381 18.3713C18.6174 18.4013 18.6254 18.443 18.6542 18.4653C18.8056 18.5825 19.2221 18.9648 19.2221 19.6241L19.2208 26.0166L20.5454 26.3523Z" fill="#2B71F6"/>
<path d="M24.9234 24.5511C24.7199 24.5002 24.5747 24.3206 24.5676 24.111L24.3652 18.1425C24.3067 17.3525 23.7203 16.7243 23.1075 16.5392C23.0731 16.5288 23.0364 16.5428 23.016 16.5724C22.9953 16.6025 23.0033 16.6442 23.0322 16.6665C23.1835 16.7837 23.6 17.1659 23.6 17.8253L23.5988 24.2199L24.9234 24.5511Z" fill="#2B71F6"/>
</g>
<defs>
<clipPath id="clip0_407_19282">
<rect width="24" height="24" fill="white" transform="translate(8 9)"/>
</clipPath>
</defs>
</svg>
